<?xml version="1.0" encoding="UTF-8" standalone="no"?>
<svg
   xmlns:dc="http://purl.org/dc/elements/1.1/"
   xmlns:cc="http://creativecommons.org/ns#"
   xmlns:rdf="http://www.w3.org/1999/02/22-rdf-syntax-ns#"
   xmlns:svg="http://www.w3.org/2000/svg"
   xmlns="http://www.w3.org/2000/svg"
   xmlns:sodipodi="http://sodipodi.sourceforge.net/DTD/sodipodi-0.dtd"
   xmlns:inkscape="http://www.inkscape.org/namespaces/inkscape"
   width="1000"
   height="1000"
   viewBox="0 0 264.58333 264.58334"
   version="1.1"
   id="svg8"
   inkscape:version="1.0.2-2 (e86c870879, 2021-01-15)"
   sodipodi:docname="foreground.svg"
   inkscape:export-filename="C:\GitHub\feelworld_tally\assets\foreground.png"
   inkscape:export-xdpi="96"
   inkscape:export-ydpi="96">
  <defs
     id="defs2">
    <filter
       inkscape:collect="always"
       style="color-interpolation-filters:sRGB"
       id="filter2091"
       x="-0.119512"
       width="1.239024"
       y="-0.119512"
       height="1.239024">
      <feGaussianBlur
         inkscape:collect="always"
         stdDeviation="5.1775793"
         id="feGaussianBlur2093" />
    </filter>
    <filter
       inkscape:collect="always"
       style="color-interpolation-filters:sRGB"
       id="filter2095"
       x="-0.119512"
       width="1.239024"
       y="-0.119512"
       height="1.239024">
      <feGaussianBlur
         inkscape:collect="always"
         stdDeviation="5.1775793"
         id="feGaussianBlur2097" />
    </filter>
    <filter
       inkscape:collect="always"
       style="color-interpolation-filters:sRGB"
       id="filter2099"
       x="-0.119512"
       width="1.239024"
       y="-0.119512"
       height="1.239024">
      <feGaussianBlur
         inkscape:collect="always"
         stdDeviation="5.1775793"
         id="feGaussianBlur2101" />
    </filter>
    <filter
       inkscape:collect="always"
       style="color-interpolation-filters:sRGB"
       id="filter2103"
       x="-0.119512"
       width="1.239024"
       y="-0.119512"
       height="1.239024">
      <feGaussianBlur
         inkscape:collect="always"
         stdDeviation="5.1775793"
         id="feGaussianBlur2105" />
    </filter>
  </defs>
  <sodipodi:namedview
     id="base"
     pagecolor="#ffffff"
     bordercolor="#666666"
     borderopacity="1.0"
     inkscape:pageopacity="0.0"
     inkscape:pageshadow="2"
     inkscape:zoom="0.69686912"
     inkscape:cx="246.74389"
     inkscape:cy="502.22528"
     inkscape:document-units="mm"
     inkscape:current-layer="layer1"
     inkscape:document-rotation="0"
     showgrid="false"
     units="px"
     inkscape:snap-bbox="true"
     inkscape:bbox-paths="true"
     inkscape:bbox-nodes="true"
     inkscape:snap-bbox-edge-midpoints="true"
     inkscape:snap-bbox-midpoints="true"
     inkscape:object-paths="true"
     inkscape:snap-intersection-paths="true"
     inkscape:snap-smooth-nodes="true"
     inkscape:snap-midpoints="true"
     showguides="true"
     inkscape:guide-bbox="true"
     inkscape:snap-object-midpoints="true"
     inkscape:snap-center="true"
     inkscape:snap-text-baseline="true"
     inkscape:object-nodes="true"
     inkscape:snap-global="true"
     inkscape:snap-page="true"
     inkscape:snap-nodes="false"
     inkscape:window-width="1920"
     inkscape:window-height="1009"
     inkscape:window-x="-8"
     inkscape:window-y="-8"
     inkscape:window-maximized="1" />
  <metadata
     id="metadata5">
    <rdf:RDF>
      <cc:Work
         rdf:about="">
        <dc:format>image/svg+xml</dc:format>
        <dc:type
           rdf:resource="http://purl.org/dc/dcmitype/StillImage" />
        <dc:title />
      </cc:Work>
    </rdf:RDF>
  </metadata>
  <g
     inkscape:groupmode="layer"
     id="layer2"
     inkscape:label="background" />
  <g
     inkscape:label="graphic"
     inkscape:groupmode="layer"
     id="layer1"
     style="display:inline">
    <rect
       style="opacity:0.48387097;fill:#000000;fill-opacity:1;stroke:none;stroke-width:0.289127;filter:url(#filter2103)"
       id="rect851"
       width="103.97442"
       height="103.97442"
       x="21.450647"
       y="-243.13269"
       ry="12.85077"
       transform="rotate(90)" />
    <rect
       style="opacity:0.48387097;fill:#000000;fill-opacity:1;stroke:none;stroke-width:0.289127;filter:url(#filter2099)"
       id="rect853"
       width="103.97442"
       height="103.97442"
       x="139.15828"
       y="-243.13269"
       ry="12.85077"
       transform="rotate(90)" />
    <rect
       style="opacity:0.48387097;fill:#000000;fill-opacity:1;stroke:none;stroke-width:0.289127;filter:url(#filter2095)"
       id="rect855"
       width="103.97442"
       height="103.97442"
       x="21.45064"
       y="-125.42506"
       ry="12.85077"
       transform="rotate(90)" />
    <rect
       style="opacity:0.48387097;fill:#000000;fill-opacity:1;stroke:none;stroke-width:0.289127;filter:url(#filter2091)"
       id="rect857"
       width="103.97442"
       height="103.97442"
       x="139.15828"
       y="-125.42506"
       ry="12.85077"
       transform="rotate(90)" />
    <rect
       style="opacity:1;fill:#c80803;fill-opacity:1;stroke:none;stroke-width:0.289127"
       id="rect938"
       width="103.97442"
       height="103.97442"
       x="21.450647"
       y="-243.13269"
       ry="12.85077"
       transform="rotate(90)" />
    <rect
       style="opacity:1;fill:#484239;fill-opacity:1;stroke:none;stroke-width:0.289127"
       id="rect955"
       width="103.97442"
       height="103.97442"
       x="139.15828"
       y="-243.13269"
       ry="12.85077"
       transform="rotate(90)" />
    <rect
       style="opacity:1;fill:#403e3b;fill-opacity:1;stroke:none;stroke-width:0.289127"
       id="rect969"
       width="103.97442"
       height="103.97442"
       x="21.45064"
       y="-125.42506"
       ry="12.85077"
       transform="rotate(90)" />
    <rect
       style="opacity:1;fill:#2b7824;fill-opacity:1;stroke:none;stroke-width:0.289127"
       id="rect977"
       width="103.97442"
       height="103.97442"
       x="139.15828"
       y="-125.42506"
       ry="12.85077"
       transform="rotate(90)" />
    <g
       aria-label="1"
       id="text942"
       style="font-style:normal;font-variant:normal;font-weight:900;font-stretch:normal;font-size:79.6863px;line-height:1.25;font-family:Roboto;-inkscape-font-specification:'Roboto Heavy';opacity:1;fill:#9e9d9b;fill-opacity:1;stroke:none;stroke-width:1.99216">
      <path
         d="M 83.843898,102.92039 H 70.692545 V 61.053951 l -12.917896,3.774205 v -9.960788 l 24.86306,-8.598961 h 1.206189 z"
         style="font-style:normal;font-variant:normal;font-weight:900;font-stretch:normal;font-family:Roboto;-inkscape-font-specification:'Roboto Heavy';fill:#9e9d9b;fill-opacity:1;stroke-width:1.99216"
         id="path2709" />
    </g>
    <g
       aria-label="2"
       id="text959"
       style="font-style:normal;font-variant:normal;font-weight:900;font-stretch:normal;font-size:79.6863px;line-height:1.25;font-family:Roboto;-inkscape-font-specification:'Roboto Heavy';opacity:1;fill:#ffffff;fill-opacity:1;stroke:none;stroke-width:1.99216">
      <path
         d="m 212.5964,101.76391 h -39.53188 v -8.560054 l 18.20957,-19.143389 q 6.73131,-7.665137 6.73131,-12.178619 0,-3.657477 -1.59528,-5.564034 -1.59528,-1.906557 -4.63021,-1.906557 -2.99602,0 -4.86367,2.568016 -1.86764,2.529106 -1.86764,6.34222 h -13.15136 q 0,-5.21385 2.60693,-9.610604 2.60692,-4.435663 7.23713,-6.92586 4.63021,-2.490197 10.34988,-2.490197 9.18261,0 14.12409,4.241117 4.98039,4.241116 4.98039,12.178619 0,3.346202 -1.24509,6.536767 -1.2451,3.151656 -3.89094,6.653495 -2.60692,3.46293 -8.44332,9.299329 l -7.31495,8.443324 h 22.29504 z"
         style="font-style:normal;font-variant:normal;font-weight:900;font-stretch:normal;font-family:Roboto;-inkscape-font-specification:'Roboto Heavy';fill:#ffffff;fill-opacity:1;stroke-width:1.99216"
         id="path2706" />
    </g>
    <g
       aria-label="3"
       id="text973"
       style="font-style:normal;font-variant:normal;font-weight:900;font-stretch:normal;font-size:79.6863px;line-height:1.25;font-family:Roboto;-inkscape-font-specification:'Roboto Heavy';opacity:1;fill:#bdd5bb;fill-opacity:1;stroke:none;stroke-width:1.99216">
      <path
         d="m 66.762696,186.23758 h 6.186583 q 7.353863,0 7.353863,-7.19822 0,-2.80147 -1.75092,-4.55239 -1.75092,-1.78983 -4.941485,-1.78983 -2.606925,0 -4.552391,1.51746 -1.906557,1.51747 -1.906557,3.77421 H 54.039346 q 0,-4.47458 2.490197,-7.97642 2.490197,-3.50183 6.886951,-5.4473 4.435663,-1.98438 9.727331,-1.98438 9.454967,0 14.863363,4.31894 5.408397,4.31893 5.408397,11.86734 0,3.65748 -2.256741,6.92586 -2.217832,3.22948 -6.497858,5.25276 4.513482,1.63419 7.081498,4.9804 2.568016,3.30729 2.568016,8.20986 0,7.58732 -5.8364,12.13971 -5.836399,4.5524 -15.330275,4.5524 -5.564033,0 -10.349881,-2.10111 -4.746937,-2.14001 -7.198225,-5.87531 -2.451288,-3.7742 -2.451288,-8.56005 h 13.190262 q 0,2.60693 2.101104,4.51348 2.101104,1.90656 5.17494,1.90656 3.462931,0 5.525125,-1.90656 2.062194,-1.94546 2.062194,-4.94148 0,-4.28003 -2.140013,-6.06986 -2.140013,-1.78982 -5.914218,-1.78982 h -6.381129 z"
         style="font-style:normal;font-variant:normal;font-weight:900;font-stretch:normal;font-family:Roboto;-inkscape-font-specification:'Roboto Heavy';fill:#bdd5bb;fill-opacity:1;stroke-width:1.99216"
         id="path2712" />
    </g>
    <g
       aria-label="4"
       id="text981"
       style="font-style:normal;font-variant:normal;font-weight:900;font-stretch:normal;font-size:79.6863px;line-height:1.25;font-family:Roboto;-inkscape-font-specification:'Roboto Heavy';opacity:1;fill:#9e9d9b;fill-opacity:1;stroke:none;stroke-width:1.99216">
      <path
         d="m 206.5373,197.9104 h 5.75858 v 10.11642 h -5.75858 v 12.02298 h -13.11244 v -12.02298 h -21.90595 l -0.77819,-8.01532 22.68414,-36.49695 v -0.11673 h 13.11244 z m -23.30669,0 h 10.19425 v -17.43138 l -0.8171,1.32292 z"
         style="font-style:normal;font-variant:normal;font-weight:900;font-stretch:normal;font-family:Roboto;-inkscape-font-specification:'Roboto Heavy';fill:#9e9d9b;fill-opacity:1;stroke-width:1.99216"
         id="path2715" />
    </g>
  </g>
</svg>
